<svg xmlns="http://www.w3.org/2000/svg" style="display: none;">
  <!-- Gaming Controller Icons -->
  <symbol id="icon-controller" viewBox="0 0 24 24">
    <path d="M7.5 6.5C7.5 8.981 9.519 11 12 11s4.5-2.019 4.5-4.5S14.481 2 12 2 7.5 4.019 7.5 6.5zM20 21h1v-1c0-3.859-3.141-7-7-7h-4c-3.859 0-7 3.141-7 7v1h1 1 14z"/>
    <circle cx="8" cy="9" r="1"/>
    <circle cx="16" cy="9" r="1"/>
    <path d="M12 14c-2.5 0-4.5 1.5-4.5 3.5v2h9v-2c0-2-2-3.5-4.5-3.5z"/>
  </symbol>

  <symbol id="icon-gamepad" viewBox="0 0 24 24">
    <path d="M17.622 3.027c-1.441-.827-3.244-.827-4.685 0L12 3.8l-.937-.773c-1.441-.827-3.244-.827-4.685 0C4.935 3.678 4 5.52 4 7.5c0 3.78 3.4 6.86 8 12.4 4.6-5.54 8-8.62 8-12.4 0-1.98-.935-3.822-2.378-4.473z"/>
    <circle cx="9" cy="8" r="1"/>
    <circle cx="15" cy="8" r="1"/>
    <rect x="11" y="6" width="2" height="4" rx="1"/>
    <rect x="8" y="9" width="4" height="2" rx="1"/>
  </symbol>

  <!-- Gaming Peripherals -->
  <symbol id="icon-headset" viewBox="0 0 24 24">
    <path d="M12 1C7.589 1 4 4.589 4 9v6c0 1.103.897 2 2 2h2c1.103 0 2-.897 2-2v-4c0-1.103-.897-2-2-2H6.5C6.5 6.691 8.691 4.5 12 4.5S17.5 6.691 17.5 9H16c-1.103 0-2 .897-2 2v4c0 1.103.897 2 2 2h2c1.103 0 2-.897 2-2V9c0-4.411-3.589-8-8-8z"/>
    <path d="M7 11h1v4H7zM16 11h1v4h-1z"/>
  </symbol>

  <symbol id="icon-keyboard" viewBox="0 0 24 24">
    <rect x="2" y="6" width="20" height="12" rx="2" fill="none" stroke="currentColor" stroke-width="2"/>
    <rect x="4" y="8" width="2" height="2" rx="0.5"/>
    <rect x="7" y="8" width="2" height="2" rx="0.5"/>
    <rect x="10" y="8" width="2" height="2" rx="0.5"/>
    <rect x="13" y="8" width="2" height="2" rx="0.5"/>
    <rect x="16" y="8" width="2" height="2" rx="0.5"/>
    <rect x="4" y="11" width="2" height="2" rx="0.5"/>
    <rect x="7" y="11" width="2" height="2" rx="0.5"/>
    <rect x="10" y="11" width="4" height="2" rx="0.5"/>
    <rect x="16" y="11" width="2" height="2" rx="0.5"/>
    <rect x="4" y="14" width="14" height="2" rx="0.5"/>
  </symbol>

  <symbol id="icon-mouse" viewBox="0 0 24 24">
    <path d="M12 2C8.686 2 6 4.686 6 8v8c0 3.314 2.686 6 6 6s6-2.686 6-6V8c0-3.314-2.686-6-6-6z" fill="none" stroke="currentColor" stroke-width="2"/>
    <path d="M12 2v6" stroke="currentColor" stroke-width="2"/>
    <circle cx="12" cy="6" r="1"/>
  </symbol>

  <!-- Gaming Setup -->
  <symbol id="icon-gaming-chair" viewBox="0 0 24 24">
    <path d="M8 2h8c1.1 0 2 .9 2 2v8c0 1.1-.9 2-2 2h-1v6c0 1.1-.9 2-2 2h-2c-1.1 0-2-.9-2-2v-6H8c-1.1 0-2-.9-2-2V4c0-1.1.9-2 2-2z"/>
    <rect x="7" y="12" width="10" height="2"/>
    <circle cx="9" cy="20" r="1"/>
    <circle cx="15" cy="20" r="1"/>
    <path d="M10 4h4v2h-4z"/>
  </symbol>

  <symbol id="icon-monitor" viewBox="0 0 24 24">
    <rect x="2" y="4" width="20" height="12" rx="2" fill="none" stroke="currentColor" stroke-width="2"/>
    <path d="M8 20h8"/>
    <path d="M12 16v4"/>
    <rect x="4" y="6" width="16" height="8" rx="1"/>
  </symbol>

  <!-- UI Icons -->
  <symbol id="icon-calendar" viewBox="0 0 24 24">
    <rect x="3" y="4" width="18" height="18" rx="2" ry="2" fill="none" stroke="currentColor" stroke-width="2"/>
    <line x1="16" y1="2" x2="16" y2="6" stroke="currentColor" stroke-width="2"/>
    <line x1="8" y1="2" x2="8" y2="6" stroke="currentColor" stroke-width="2"/>
    <line x1="3" y1="10" x2="21" y2="10" stroke="currentColor" stroke-width="2"/>
  </symbol>

  <symbol id="icon-clock" viewBox="0 0 24 24">
    <circle cx="12" cy="12" r="10" fill="none" stroke="currentColor" stroke-width="2"/>
    <polyline points="12,6 12,12 16,14" stroke="currentColor" stroke-width="2"/>
  </symbol>

  <symbol id="icon-user" viewBox="0 0 24 24">
    <path d="M20 21v-2a4 4 0 0 0-4-4H8a4 4 0 0 0-4 4v2"/>
    <circle cx="12" cy="7" r="4"/>
  </symbol>

  <symbol id="icon-users" viewBox="0 0 24 24">
    <path d="M17 21v-2a4 4 0 0 0-4-4H5a4 4 0 0 0-4 4v2"/>
    <circle cx="9" cy="7" r="4"/>
    <path d="M23 21v-2a4 4 0 0 0-3-3.87"/>
    <path d="M16 3.13a4 4 0 0 1 0 7.75"/>
  </symbol>

  <!-- Status Icons -->
  <symbol id="icon-check" viewBox="0 0 24 24">
    <polyline points="20,6 9,17 4,12" fill="none" stroke="currentColor" stroke-width="2"/>
  </symbol>

  <symbol id="icon-x" viewBox="0 0 24 24">
    <line x1="18" y1="6" x2="6" y2="18" stroke="currentColor" stroke-width="2"/>
    <line x1="6" y1="6" x2="18" y2="18" stroke="currentColor" stroke-width="2"/>
  </symbol>

  <symbol id="icon-alert-circle" viewBox="0 0 24 24">
    <circle cx="12" cy="12" r="10" fill="none" stroke="currentColor" stroke-width="2"/>
    <line x1="12" y1="8" x2="12" y2="12" stroke="currentColor" stroke-width="2"/>
    <circle cx="12" cy="16" r="1"/>
  </symbol>

  <symbol id="icon-info" viewBox="0 0 24 24">
    <circle cx="12" cy="12" r="10" fill="none" stroke="currentColor" stroke-width="2"/>
    <line x1="12" y1="16" x2="12" y2="12" stroke="currentColor" stroke-width="2"/>
    <circle cx="12" cy="8" r="1"/>
  </symbol>

  <!-- Navigation Icons -->
  <symbol id="icon-menu" viewBox="0 0 24 24">
    <line x1="3" y1="6" x2="21" y2="6" stroke="currentColor" stroke-width="2"/>
    <line x1="3" y1="12" x2="21" y2="12" stroke="currentColor" stroke-width="2"/>
    <line x1="3" y1="18" x2="21" y2="18" stroke="currentColor" stroke-width="2"/>
  </symbol>

  <symbol id="icon-chevron-left" viewBox="0 0 24 24">
    <polyline points="15,18 9,12 15,6" fill="none" stroke="currentColor" stroke-width="2"/>
  </symbol>

  <symbol id="icon-chevron-right" viewBox="0 0 24 24">
    <polyline points="9,18 15,12 9,6" fill="none" stroke="currentColor" stroke-width="2"/>
  </symbol>

  <symbol id="icon-chevron-up" viewBox="0 0 24 24">
    <polyline points="18,15 12,9 6,15" fill="none" stroke="currentColor" stroke-width="2"/>
  </symbol>

  <symbol id="icon-chevron-down" viewBox="0 0 24 24">
    <polyline points="6,9 12,15 18,9" fill="none" stroke="currentColor" stroke-width="2"/>
  </symbol>

  <symbol id="icon-arrow-left" viewBox="0 0 24 24">
    <line x1="19" y1="12" x2="5" y2="12" stroke="currentColor" stroke-width="2"/>
    <polyline points="12,19 5,12 12,5" fill="none" stroke="currentColor" stroke-width="2"/>
  </symbol>

  <symbol id="icon-arrow-right" viewBox="0 0 24 24">
    <line x1="5" y1="12" x2="19" y2="12" stroke="currentColor" stroke-width="2"/>
    <polyline points="12,5 19,12 12,19" fill="none" stroke="currentColor" stroke-width="2"/>
  </symbol>

  <!-- Booking Icons -->
  <symbol id="icon-booking" viewBox="0 0 24 24">
    <rect x="3" y="4" width="18" height="18" rx="2" ry="2" fill="none" stroke="currentColor" stroke-width="2"/>
    <line x1="16" y1="2" x2="16" y2="6" stroke="currentColor" stroke-width="2"/>
    <line x1="8" y1="2" x2="8" y2="6" stroke="currentColor" stroke-width="2"/>
    <line x1="3" y1="10" x2="21" y2="10" stroke="currentColor" stroke-width="2"/>
    <circle cx="8" cy="14" r="1"/>
    <circle cx="12" cy="14" r="1"/>
    <circle cx="16" cy="14" r="1"/>
    <circle cx="8" cy="18" r="1"/>
    <circle cx="12" cy="18" r="1"/>
  </symbol>

  <symbol id="icon-payment" viewBox="0 0 24 24">
    <rect x="1" y="4" width="22" height="16" rx="2" ry="2" fill="none" stroke="currentColor" stroke-width="2"/>
    <line x1="1" y1="10" x2="23" y2="10" stroke="currentColor" stroke-width="2"/>
  </symbol>

  <!-- Gaming Status Icons -->
  <symbol id="icon-available" viewBox="0 0 24 24">
    <circle cx="12" cy="12" r="10" fill="currentColor"/>
    <path d="M9 12l2 2 4-4" stroke="white" stroke-width="2" fill="none"/>
  </symbol>

  <symbol id="icon-busy" viewBox="0 0 24 24">
    <circle cx="12" cy="12" r="10" fill="currentColor"/>
    <line x1="15" y1="9" x2="9" y2="15" stroke="white" stroke-width="2"/>
    <line x1="9" y1="9" x2="15" y2="15" stroke="white" stroke-width="2"/>
  </symbol>

  <symbol id="icon-offline" viewBox="0 0 24 24">
    <circle cx="12" cy="12" r="10" fill="none" stroke="currentColor" stroke-width="2"/>
    <line x1="4.93" y1="4.93" x2="19.07" y2="19.07" stroke="currentColor" stroke-width="2"/>
  </symbol>

  <!-- Loading Icons -->
  <symbol id="icon-loader" viewBox="0 0 24 24">
    <line x1="12" y1="2" x2="12" y2="6" stroke="currentColor" stroke-width="2"/>
    <line x1="12" y1="18" x2="12" y2="22" stroke="currentColor" stroke-width="2"/>
    <line x1="4.93" y1="4.93" x2="7.76" y2="7.76" stroke="currentColor" stroke-width="2"/>
    <line x1="16.24" y1="16.24" x2="19.07" y2="19.07" stroke="currentColor" stroke-width="2"/>
    <line x1="2" y1="12" x2="6" y2="12" stroke="currentColor" stroke-width="2"/>
    <line x1="18" y1="12" x2="22" y2="12" stroke="currentColor" stroke-width="2"/>
    <line x1="4.93" y1="19.07" x2="7.76" y2="16.24" stroke="currentColor" stroke-width="2"/>
    <line x1="16.24" y1="7.76" x2="19.07" y2="4.93" stroke="currentColor" stroke-width="2"/>
  </symbol>

  <!-- Social Icons -->
  <symbol id="icon-share" viewBox="0 0 24 24">
    <circle cx="18" cy="5" r="3" fill="none" stroke="currentColor" stroke-width="2"/>
    <circle cx="6" cy="12" r="3" fill="none" stroke="currentColor" stroke-width="2"/>
    <circle cx="18" cy="19" r="3" fill="none" stroke="currentColor" stroke-width="2"/>
    <line x1="8.59" y1="13.51" x2="15.42" y2="17.49" stroke="currentColor" stroke-width="2"/>
    <line x1="15.41" y1="6.51" x2="8.59" y2="10.49" stroke="currentColor" stroke-width="2"/>
  </symbol>

  <!-- Settings Icons -->
  <symbol id="icon-settings" viewBox="0 0 24 24">
    <circle cx="12" cy="12" r="3" fill="none" stroke="currentColor" stroke-width="2"/>
    <path d="M19.4 15a1.65 1.65 0 0 0 .33 1.82l.06.06a2 2 0 0 1 0 2.83 2 2 0 0 1-2.83 0l-.06-.06a1.65 1.65 0 0 0-1.82-.33 1.65 1.65 0 0 0-1 1.51V21a2 2 0 0 1-2 2 2 2 0 0 1-2-2v-.09A1.65 1.65 0 0 0 9 19.4a1.65 1.65 0 0 0-1.82.33l-.06.06a2 2 0 0 1-2.83 0 2 2 0 0 1 0-2.83l.06-.06a1.65 1.65 0 0 0 .33-1.82 1.65 1.65 0 0 0-1.51-1H3a2 2 0 0 1-2-2 2 2 0 0 1 2-2h.09A1.65 1.65 0 0 0 4.6 9a1.65 1.65 0 0 0-.33-1.82l-.06-.06a2 2 0 0 1 0-2.83 2 2 0 0 1 2.83 0l.06.06a1.65 1.65 0 0 0 1.82.33H9a1.65 1.65 0 0 0 1-1.51V3a2 2 0 0 1 2-2 2 2 0 0 1 2 2v.09a1.65 1.65 0 0 0 1 1.51 1.65 1.65 0 0 0 1.82-.33l.06-.06a2 2 0 0 1 2.83 0 2 2 0 0 1 0 2.83l-.06.06a1.65 1.65 0 0 0-.33 1.82V9a1.65 1.65 0 0 0 1.51 1H21a2 2 0 0 1 2 2 2 2 0 0 1-2 2h-.09a1.65 1.65 0 0 0-1.51 1z"/>
  </symbol>

  <!-- Notification Icons -->
  <symbol id="icon-bell" viewBox="0 0 24 24">
    <path d="M18 8A6 6 0 0 0 6 8c0 7-3 9-3 9h18s-3-2-3-9"/>
    <path d="M13.73 21a2 2 0 0 1-3.46 0"/>
  </symbol>

  <!-- Gaming Particles (Decorative) -->
  <symbol id="icon-particle-1" viewBox="0 0 24 24">
    <polygon points="12,2 15.09,8.26 22,9 17,14.74 18.18,21.02 12,17.77 5.82,21.02 7,14.74 2,9 8.91,8.26" fill="currentColor"/>
  </symbol>

  <symbol id="icon-particle-2" viewBox="0 0 24 24">
    <circle cx="12" cy="12" r="3" fill="currentColor"/>
    <circle cx="12" cy="12" r="8" fill="none" stroke="currentColor" stroke-width="1" opacity="0.5"/>
  </symbol>

  <symbol id="icon-particle-3" viewBox="0 0 24 24">
    <rect x="10" y="10" width="4" height="4" fill="currentColor" transform="rotate(45 12 12)"/>
  </symbol>
</svg>